<svg width="42" height="20" viewBox="0 0 42 20" fill="none" xmlns="http://www.w3.org/2000/svg">
<path d="M26.438 0C17.9256 0 11 6.92529 11 15.4377C11 16.5909 11.132 17.7536 11.3928 18.8923C11.5412 19.5402 12.1178 20 12.7826 20H40.0934C40.7578 20 41.335 19.5402 41.4831 18.8923C41.7437 17.7536 41.876 16.5909 41.876 15.4377C41.876 6.92529 34.9504 0 26.438 0ZM26.438 2.30674C27.3323 2.30674 28.0592 3.03398 28.0592 3.92762C28.0592 4.36055 27.8906 4.76759 27.5842 5.07389C27.2783 5.37988 26.8712 5.5485 26.4386 5.5485C25.545 5.5485 24.8174 4.82127 24.8171 3.92762C24.8168 3.03366 25.544 2.30674 26.438 2.30674ZM14.3438 17.6427C13.4501 17.6427 12.7229 16.9155 12.7229 16.0219C12.7229 15.1282 13.4501 14.401 14.3438 14.401C15.2377 14.401 15.9649 15.1282 15.9649 16.0219C15.9649 16.9155 15.2377 17.6427 14.3438 17.6427ZM19.0324 8.61595C18.7264 8.92226 18.3194 9.09088 17.8864 9.09088C17.4535 9.09088 17.0462 8.92226 16.7402 8.61595C16.4342 8.30997 16.2656 7.90293 16.2656 7.47C16.2656 7.03707 16.4342 6.63004 16.7405 6.32373C17.0468 6.01743 17.4538 5.84881 17.8868 5.84881C18.3197 5.84881 18.7267 6.01743 19.0327 6.32342C19.339 6.62972 19.5076 7.03676 19.5076 7.46969C19.5076 7.90261 19.3387 8.30997 19.0324 8.61595ZM28.0712 18.0248C26.2251 18.9087 24.0037 18.1249 23.1198 16.2786C22.2363 14.4319 21.7778 4.87274 21.7778 4.87274C21.7778 4.87274 28.9345 11.2265 29.8177 13.0725C30.7016 14.9201 29.9178 17.1413 28.0712 18.0248ZM36.1364 8.61595C35.8298 8.92226 35.4228 9.09088 34.9898 9.09088C34.5569 9.09088 34.1499 8.92226 33.8439 8.61595C33.5376 8.30997 33.3696 7.90293 33.3696 7.47C33.3696 7.03707 33.5379 6.62972 33.8439 6.32373C34.1499 6.01775 34.5569 5.84912 34.9898 5.84912C35.4228 5.84912 35.8298 6.01775 36.1364 6.32405C36.4427 6.63035 36.6107 7.03739 36.6113 7.47032C36.6107 7.90293 36.4421 8.30997 36.1364 8.61595ZM38.5322 17.6427C37.6382 17.6427 36.9107 16.9155 36.9107 16.0219C36.9107 15.1282 37.6382 14.401 38.5322 14.401C39.4259 14.401 40.1531 15.1282 40.1531 16.0219C40.1531 16.9155 39.4262 17.6427 38.5322 17.6427Z" fill="#FFA500"/>
<path d="M25.8677 13.4203C25.1752 13.7519 24.8812 14.5849 25.2128 15.2771C25.544 15.9699 26.377 16.2636 27.0692 15.932C27.7617 15.6007 28.0554 14.7674 27.7241 14.0749C27.3929 13.3827 26.5602 13.0887 25.8677 13.4203Z" fill="#FFA500"/>
<path d="M3 6H9" stroke="#FFA500" stroke-width="1.5" stroke-linecap="round"/>
<path d="M3 16H9" stroke="#FFA500" stroke-width="1.5" stroke-linecap="round"/>
<path d="M1 11H7" stroke="#FFA500" stroke-width="1.5" stroke-linecap="round"/>
</svg>
