<svg width="30" height="35" viewBox="0 0 30 35" fill="none" xmlns="http://www.w3.org/2000/svg">
<path d="M21.9879 25.8028C20.6977 25.3659 18.8162 24.0897 18.8162 23.2952C18.8162 22.7689 18.8162 22.1113 18.8162 21.21C19.5618 20.4585 20.1288 18.9329 20.4658 17.2034C21.2518 16.9492 21.701 16.5424 22.2621 14.7625C22.8585 12.8665 21.3639 12.931 21.3639 12.931C22.5728 9.30562 20.9814 5.89846 18.3158 6.14859C16.4772 3.23473 10.3189 6.81422 8.38939 6.56473C8.38939 7.56404 8.84876 8.31328 8.84876 8.31328C8.17802 9.46699 8.43674 11.7674 8.62509 12.931C8.51617 12.9292 7.16453 12.942 7.73786 14.7625C8.29904 16.5423 8.74811 16.9492 9.53418 17.2034C9.87052 18.9329 10.4374 20.4585 11.1838 21.21C11.1838 22.1113 11.1838 22.7689 11.1838 23.2952C11.1838 24.0897 9.1851 25.428 8.01211 25.8028C5.58859 26.5759 -0.366632 28.7991 0.017766 32.9636C0.109936 33.963 6.17602 35 15 35C23.8233 35 29.89 33.963 29.9823 32.9636C30.3666 28.795 24.3961 26.6188 21.9879 25.8028Z" fill="#FFA500"/>
<path d="M24.9753 15.4077C25.2973 15.3214 26.8585 14.7424 27.5 12.5C28.1415 10.2576 26.8778 8.34119 26.5443 7.74037" stroke="#FFA500" stroke-width="1.5" stroke-linecap="round"/>
<path d="M27.936 2.6767C27.6097 4.45917 25 6 25 6C25 6 22.3903 4.45917 22.064 2.6767C21.7423 0.920333 22.6887 0.00317091 23.6667 0.00317091C23.928 -0.0144452 24.1891 0.0415671 24.4233 0.165501C24.6575 0.289434 24.8565 0.47686 25 0.70868C25.1435 0.47686 25.3425 0.289434 25.5767 0.165501C25.8109 0.0415671 26.072 -0.0144452 26.3333 0.00317091C27.3113 0.00317091 28.2577 0.920333 27.936 2.6767Z" fill="#FFA500"/>
</svg>
